# xmcd CD database file
#
# Track frame offsets:
#	150
#	33892
#	79470
#	99892
#	145572
#	193465
#	223252
#	248098
#	285934
#	329544
#
# Disc length: 4914 seconds
#
# Revision: 0
# Processed by: cddbd v1.5.2PL0 Copyright (c) Steve Scherf et al.
# Submitted via: CDex 1.77
#
DISCID=8e13300a
DTITLE=Freddie Hubbard - Classic Recordings 1960-1962 - Disc 3
DYEAR=1960
DGENRE=Jazz
TTITLE0=Caravan
TTITLE1=Bob's Place
TTITLE2=Happy Times
TTITLE3=Summertime
TTITLE4=The 7th Day
TTITLE5=You're My Everything
TTITLE6=Prophet Jennings
TTITLE7=Hub-Tones
TTITLE8=Lament for Booker
TTITLE9=For Spee's Sake
EXTD=YEAR: 1960
EXTT0=
EXTT1=
EXTT2=
EXTT3=
EXTT4=
EXTT5=
EXTT6=
EXTT7=
EXTT8=
EXTT9=
PLAYORDER=
